<svg width="378" height="124" viewBox="0 0 378 124" fill="none" xmlns="http://www.w3.org/2000/svg">
<rect width="105.726" height="106.419" rx="15" transform="matrix(0.983035 0.18342 -0.183725 0.982978 19.5518 0)" fill="#B29F91" fill-opacity="0.4"/>
<rect x="14.2029" y="12.1636" width="97.3913" height="97.3078" rx="15" fill="#B6947B"/>
<ellipse cx="60.8696" cy="62.8447" rx="30.4348" ry="30.4087" fill="white"/>
<ellipse cx="60.8696" cy="62.8447" rx="20.2899" ry="20.2725" fill="#B6947B"/>
<ellipse cx="60.8696" cy="62.8447" rx="16.2319" ry="16.218" fill="white"/>
<ellipse cx="60.8696" cy="62.8446" rx="12.1739" ry="12.1635" fill="#B6947B"/>
<path d="M135.04 79V45.4H150.112C153.984 45.4 156.96 46.184 159.04 47.752C161.12 49.288 162.16 51.4 162.16 54.088C162.16 55.912 161.744 57.448 160.912 58.696C160.112 59.944 159.024 60.904 157.648 61.576C156.272 62.248 154.784 62.584 153.184 62.584L154.048 61.144C155.968 61.144 157.664 61.48 159.136 62.152C160.608 62.824 161.776 63.816 162.64 65.128C163.504 66.408 163.936 68.008 163.936 69.928C163.936 72.808 162.848 75.048 160.672 76.648C158.528 78.216 155.328 79 151.072 79H135.04ZM139.84 75.112H150.88C153.536 75.112 155.568 74.664 156.976 73.768C158.384 72.872 159.088 71.464 159.088 69.544C159.088 67.592 158.384 66.168 156.976 65.272C155.568 64.376 153.536 63.928 150.88 63.928H139.408V60.04H149.68C152.112 60.04 154 59.592 155.344 58.696C156.688 57.8 157.36 56.456 157.36 54.664C157.36 52.872 156.688 51.528 155.344 50.632C154 49.736 152.112 49.288 149.68 49.288H139.84V75.112ZM186.488 79V73.624L186.248 72.616V63.448C186.248 61.496 185.672 59.992 184.52 58.936C183.4 57.848 181.704 57.304 179.432 57.304C177.928 57.304 176.456 57.56 175.016 58.072C173.576 58.552 172.36 59.208 171.368 60.04L169.448 56.584C170.76 55.528 172.328 54.728 174.152 54.184C176.008 53.608 177.944 53.32 179.96 53.32C183.448 53.32 186.136 54.168 188.024 55.864C189.912 57.56 190.856 60.152 190.856 63.64V79H186.488ZM178.136 79.288C176.248 79.288 174.584 78.968 173.144 78.328C171.736 77.688 170.648 76.808 169.88 75.688C169.112 74.536 168.728 73.24 168.728 71.8C168.728 70.424 169.048 69.176 169.688 68.056C170.36 66.936 171.432 66.04 172.904 65.368C174.408 64.696 176.424 64.36 178.952 64.36H187.016V67.672H179.144C176.84 67.672 175.288 68.056 174.488 68.824C173.688 69.592 173.288 70.52 173.288 71.608C173.288 72.856 173.784 73.864 174.776 74.632C175.768 75.368 177.144 75.736 178.904 75.736C180.632 75.736 182.136 75.352 183.416 74.584C184.728 73.816 185.672 72.696 186.248 71.224L187.16 74.392C186.552 75.896 185.48 77.096 183.944 77.992C182.408 78.856 180.472 79.288 178.136 79.288ZM199.384 79V53.56H203.992V79H199.384ZM201.688 48.664C200.792 48.664 200.04 48.376 199.432 47.8C198.856 47.224 198.568 46.52 198.568 45.688C198.568 44.824 198.856 44.104 199.432 43.528C200.04 42.952 200.792 42.664 201.688 42.664C202.584 42.664 203.32 42.952 203.896 43.528C204.504 44.072 204.808 44.76 204.808 45.592C204.808 46.456 204.52 47.192 203.944 47.8C203.368 48.376 202.616 48.664 201.688 48.664ZM212.79 79V43.384H217.398V79H212.79ZM241.988 79V73.624L241.748 72.616V63.448C241.748 61.496 241.172 59.992 240.02 58.936C238.9 57.848 237.204 57.304 234.932 57.304C233.428 57.304 231.956 57.56 230.516 58.072C229.076 58.552 227.86 59.208 226.868 60.04L224.948 56.584C226.26 55.528 227.828 54.728 229.652 54.184C231.508 53.608 233.444 53.32 235.46 53.32C238.948 53.32 241.636 54.168 243.524 55.864C245.412 57.56 246.356 60.152 246.356 63.64V79H241.988ZM233.636 79.288C231.748 79.288 230.084 78.968 228.644 78.328C227.236 77.688 226.148 76.808 225.38 75.688C224.612 74.536 224.228 73.24 224.228 71.8C224.228 70.424 224.548 69.176 225.188 68.056C225.86 66.936 226.932 66.04 228.404 65.368C229.908 64.696 231.924 64.36 234.452 64.36H242.516V67.672H234.644C232.34 67.672 230.788 68.056 229.988 68.824C229.188 69.592 228.788 70.52 228.788 71.608C228.788 72.856 229.284 73.864 230.276 74.632C231.268 75.368 232.644 75.736 234.404 75.736C236.132 75.736 237.636 75.352 238.916 74.584C240.228 73.816 241.172 72.696 241.748 71.224L242.66 74.392C242.052 75.896 240.98 77.096 239.444 77.992C237.908 78.856 235.972 79.288 233.636 79.288ZM268.468 53.32C270.548 53.32 272.372 53.72 273.94 54.52C275.54 55.32 276.788 56.536 277.684 58.168C278.58 59.8 279.028 61.864 279.028 64.36V79H274.42V64.888C274.42 62.424 273.812 60.568 272.596 59.32C271.412 58.072 269.732 57.448 267.556 57.448C265.924 57.448 264.5 57.768 263.284 58.408C262.068 59.048 261.124 59.992 260.452 61.24C259.812 62.488 259.492 64.04 259.492 65.896V79H254.884V53.56H259.3V60.424L258.58 58.6C259.412 56.936 260.692 55.64 262.42 54.712C264.148 53.784 266.164 53.32 268.468 53.32ZM288.191 88.6C286.975 88.6 285.791 88.392 284.639 87.976C283.487 87.592 282.495 87.016 281.663 86.248L283.631 82.792C284.271 83.4 284.975 83.864 285.743 84.184C286.511 84.504 287.327 84.664 288.191 84.664C289.311 84.664 290.239 84.376 290.975 83.8C291.711 83.224 292.399 82.2 293.039 80.728L294.623 77.224L295.103 76.648L305.087 53.56H309.599L297.263 81.544C296.527 83.336 295.695 84.744 294.767 85.768C293.871 86.792 292.879 87.512 291.791 87.928C290.703 88.376 289.503 88.6 288.191 88.6ZM294.239 79.816L282.623 53.56H287.423L297.311 76.216L294.239 79.816ZM320.867 79.288C318.755 79.288 316.739 79 314.819 78.424C312.931 77.848 311.443 77.144 310.355 76.312L312.275 72.664C313.363 73.4 314.707 74.024 316.307 74.536C317.907 75.048 319.539 75.304 321.203 75.304C323.347 75.304 324.883 75 325.811 74.392C326.771 73.784 327.251 72.936 327.251 71.848C327.251 71.048 326.963 70.424 326.387 69.976C325.811 69.528 325.043 69.192 324.083 68.968C323.155 68.744 322.115 68.552 320.963 68.392C319.811 68.2 318.659 67.976 317.507 67.72C316.355 67.432 315.299 67.048 314.339 66.568C313.379 66.056 312.611 65.368 312.035 64.504C311.459 63.608 311.171 62.424 311.171 60.952C311.171 59.416 311.603 58.072 312.467 56.92C313.331 55.768 314.547 54.888 316.115 54.28C317.715 53.64 319.603 53.32 321.779 53.32C323.443 53.32 325.123 53.528 326.819 53.944C328.547 54.328 329.955 54.888 331.043 55.624L329.075 59.272C327.923 58.504 326.723 57.976 325.475 57.688C324.227 57.4 322.979 57.256 321.731 57.256C319.715 57.256 318.211 57.592 317.219 58.264C316.227 58.904 315.731 59.736 315.731 60.76C315.731 61.624 316.019 62.296 316.595 62.776C317.203 63.224 317.971 63.576 318.899 63.832C319.859 64.088 320.915 64.312 322.067 64.504C323.219 64.664 324.371 64.888 325.523 65.176C326.675 65.432 327.715 65.8 328.643 66.28C329.603 66.76 330.371 67.432 330.947 68.296C331.555 69.16 331.859 70.312 331.859 71.752C331.859 73.288 331.411 74.616 330.515 75.736C329.619 76.856 328.355 77.736 326.723 78.376C325.091 78.984 323.139 79.288 320.867 79.288ZM346.354 79.288C343.794 79.288 341.81 78.6 340.402 77.224C338.994 75.848 338.29 73.88 338.29 71.32V47.992H342.898V71.128C342.898 72.504 343.234 73.56 343.906 74.296C344.61 75.032 345.602 75.4 346.882 75.4C348.322 75.4 349.522 75 350.482 74.2L351.922 77.512C351.218 78.12 350.37 78.568 349.378 78.856C348.418 79.144 347.41 79.288 346.354 79.288ZM333.97 57.352V53.56H350.194V57.352H333.97ZM373.285 79V73.624L373.045 72.616V63.448C373.045 61.496 372.469 59.992 371.317 58.936C370.197 57.848 368.501 57.304 366.229 57.304C364.725 57.304 363.253 57.56 361.813 58.072C360.373 58.552 359.157 59.208 358.165 60.04L356.245 56.584C357.557 55.528 359.125 54.728 360.949 54.184C362.805 53.608 364.741 53.32 366.757 53.32C370.245 53.32 372.933 54.168 374.821 55.864C376.709 57.56 377.653 60.152 377.653 63.64V79H373.285ZM364.933 79.288C363.045 79.288 361.381 78.968 359.941 78.328C358.533 77.688 357.445 76.808 356.677 75.688C355.909 74.536 355.525 73.24 355.525 71.8C355.525 70.424 355.845 69.176 356.485 68.056C357.157 66.936 358.229 66.04 359.701 65.368C361.205 64.696 363.221 64.36 365.749 64.36H373.813V67.672H365.941C363.637 67.672 362.085 68.056 361.285 68.824C360.485 69.592 360.085 70.52 360.085 71.608C360.085 72.856 360.581 73.864 361.573 74.632C362.565 75.368 363.941 75.736 365.701 75.736C367.429 75.736 368.933 75.352 370.213 74.584C371.525 73.816 372.469 72.696 373.045 71.224L373.957 74.392C373.349 75.896 372.277 77.096 370.741 77.992C369.205 78.856 367.269 79.288 364.933 79.288Z" fill="#B6947B"/>
</svg>
